<?xml version="1.0" standalone="no"?>
<!DOCTYPE svg PUBLIC "-//W3C//DTD SVG 20010904//EN"
 "http://www.w3.org/TR/2001/REC-SVG-20010904/DTD/svg10.dtd">
<svg version="1.0" xmlns="http://www.w3.org/2000/svg"
 width="700.000000pt" height="700.000000pt" viewBox="0 0 700.000000 700.000000"
 preserveAspectRatio="xMidYMid meet">
<metadata>
Created by potrace 1.11, written by Peter Selinger 2001-2013
</metadata>
<g transform="translate(0.000000,700.000000) scale(0.100000,-0.100000)"
fill="#000000" stroke="none">
<path d="M3298 6995 c-2 -1 -48 -6 -103 -9 -54 -4 -101 -9 -105 -10 -3 -2 -34
-7 -69 -10 -35 -4 -85 -11 -110 -16 -59 -12 -99 -20 -136 -26 -141 -24 -572
-162 -568 -182 1 -5 -6 -8 -16 -5 -18 5 -158 -56 -306 -133 -939 -486 -1616
-1390 -1819 -2429 -30 -156 -36 -198 -53 -375 -10 -107 -10 -499 0 -605 16
-170 45 -346 83 -505 143 -598 449 -1162 870 -1600 202 -211 382 -361 609
-509 61 -39 115 -74 120 -79 53 -39 384 -203 505 -250 179 -69 370 -130 499
-158 144 -32 251 -51 326 -60 22 -2 49 -6 60 -9 118 -25 679 -26 814 0 9 1 41
6 72 9 31 4 65 8 75 10 11 2 39 7 64 11 184 30 461 108 671 190 134 52 418
189 471 226 14 11 29 19 33 19 13 0 272 177 365 249 158 123 337 290 455 425
33 38 67 76 75 85 38 41 170 218 170 229 0 7 4 12 8 12 15 0 156 225 241 385
135 254 271 632 327 909 24 121 51 304 61 416 15 165 7 647 -12 720 -2 8 -6
36 -10 62 -50 406 -207 865 -429 1258 -98 173 -310 470 -414 578 -100 106
-200 207 -248 252 -363 338 -799 594 -1289 755 -118 39 -335 97 -410 109 -16
3 -70 12 -120 20 -49 8 -115 18 -145 21 -30 3 -71 8 -90 11 -38 5 -517 14
-522 9z"/>
</g>
</svg>
